<svg id="Layer_1" data-name="Layer 1" xmlns="http://www.w3.org/2000/svg" viewBox="0 0 369.4 72.7"><title>NEW LOGO svg</title><path d="M46.6,10a21.1,21.1,0,0,0-23.8,0C3.1,23.4,22.3,49,34.9,60.2,47.1,48.8,66.3,23.4,46.6,10ZM34.7,42.1c-9.3,0-16.8-7.2-16.8-16.1s7.5-16,16.8-16,16.8,7.2,16.8,16S44,42.1,34.7,42.1Z" fill="#ea0011" fill-rule="evenodd"/><path d="M45.7,55.3c3.1,1.2,5,2.8,5,4.7,0,3.5-7.2,6.4-16,6.4s-16-2.9-16-6.4c0-1.9,1.9-3.5,5-4.7A3.8,3.8,0,0,0,22,58.1c0,3.1,5.7,5.6,12.7,5.6s12.7-2.5,12.7-5.6a3.8,3.8,0,0,0-1.7-2.8" fill="#ea0011" fill-rule="evenodd"/><path d="M48.8,26.5l-6.6-6.9V14.4H38.6v1.5L34.8,12,20.6,26.5h3.3v9.4s3.2,5.1,10.9,5,10.5-5.5,10.5-5.5V26.5Zm-14.5,8H30.1V30.2h4.2Zm0-5.1H30.1V25.2h4.2Zm4.9,5.1H35.1V30.2h4.1Zm0-5.1H35.1V25.2h4.1Z" fill="#ea0011"/><path d="M84.4,50.9v-13H68.6v13H64.9v-29h3.7V34.7H84.4V21.9h3.7v29Z" fill="#ea0011"/><path d="M108.3,51.4c-7.9,0-15.3-5.9-15.3-15.1s7.4-14.9,15.3-14.9,15.2,5.8,15.2,14.9A15,15,0,0,1,108.3,51.4Zm0-26.7A11.4,11.4,0,0,0,96.8,36.4a11.4,11.4,0,0,0,11.5,11.8,11.6,11.6,0,0,0,11.5-11.8A11.5,11.5,0,0,0,108.3,24.7Z" fill="#ea0011"/><path d="M156.5,50.9l-1.2-14.1c-.1-2.1-.3-4.8-.4-7h-.1c-1,2.2-2.4,5.1-3.5,7.2l-6.9,14h-1.5l-7-14c-1.1-2.1-2.3-4.8-3.4-7.2h-.1c-.1,2.4-.3,5.1-.4,7l-1.2,14.1h-3.3l2.4-29h2.3L140,37.5c1.2,2.3,2.7,5.3,3.8,7.7h.1c1-2.4,2.3-5.2,3.6-7.8l7.7-15.5h2.4l2.5,29Z" fill="#ea0011"/><path d="M165.3,50.9v-29h15.3v3.2H169v9.6h9.7v3.2H169v9.7h13.2v3.3Z" fill="#ea0011"/><path d="M188.3,50.9v-29h7.1v29Z" fill="#ea0011"/><path d="M216.9,50.9l-7.8-11.4h-1.8V50.9h-6.8v-29h10.6c4.9,0,9.3,3.3,9.3,8.8a8,8,0,0,1-4.4,7.2l9.2,13ZM210,27.6h-2.7v6.5H210c1.8,0,3.7-1,3.7-3.3S211.8,27.6,210,27.6Z" fill="#ea0011"/><path d="M226.2,50.9v-29h16.6v5.8h-9.7v5.7h8v5.9h-8v5.8h11.1v5.8Z" fill="#ea0011"/><path d="M246.8,50.9v-29h7V45.1h10.9v5.8Z" fill="#ea0011"/><path d="M286.6,50.9l-2.4-6.6H275l-2.4,6.6H266l11.4-29.2h4.8l11.4,29.2Zm-6.1-17.4c-.3-.8-.6-1.8-.9-2.7h0c-.3.9-.6,1.9-.9,2.7l-1.9,5.3h5.7Z" fill="#ea0011"/><path d="M320,51.2,308.6,38.7c-1.8-2-3.9-4.4-5.4-6.3h-.1c.1,2.1.1,4.2.1,6.1V50.9h-6.8v-29h5.7l10,10.8c1.4,1.6,3.5,3.9,4.8,5.6h.1c-.1-1.7-.2-3.5-.2-5.4V21.9h6.8V51.2Z" fill="#ea0011"/><path d="M338.1,50.9h-9.8v-29h9.8c8.3,0,15.5,5.4,15.5,14.5S346.4,50.9,338.1,50.9Zm-.7-23.2h-2.3V45.1h2.3c5,0,9.1-2.9,9.1-8.7S342.4,27.7,337.4,27.7Z" fill="#ea0011"/></svg>