<?xml version="1.0" encoding="utf-8"?>
<!-- Generator: Adobe Illustrator 25.4.1, SVG Export Plug-In . SVG Version: 6.00 Build 0)  -->
<svg version="1.1" id="Layer_1" xmlns="http://www.w3.org/2000/svg" xmlns:xlink="http://www.w3.org/1999/xlink" x="0px" y="0px"
	 viewBox="0 0 1169.5 335.1" style="enable-background:new 0 0 1169.5 335.1;" xml:space="preserve">
<style type="text/css">
	.st0{opacity:0.24;}
	.st1{fill-rule:evenodd;clip-rule:evenodd;fill:#FFFFFF;}
	.st2{fill:#FFFFFF;}
</style>
<g class="st0">
	<g>
		<path class="st1" d="M177.2,49.8c-31.8-21.7-74.5-21.7-106.2,0c-88,59.9-2.1,174.2,53.9,224.4C179.3,223,265.2,109.8,177.2,49.8z
			 M124.1,193.1c-41.4,0-75-32.1-75-71.6c0-39.6,33.6-71.6,75-71.6s75,32.1,75,71.6S165.5,193.1,124.1,193.1z"/>
		<g>
			<path class="st1" d="M173.3,252.3c13.7,5.2,22.2,12.5,22.2,20.7c0,15.8-32,28.5-71.4,28.5S52.7,288.7,52.7,273
				c0-8.1,8.5-15.5,22.2-20.7c-4.7,3.7-7.4,7.9-7.4,12.4c0,13.8,25.4,25,56.6,25c31.3,0,56.6-11.2,56.6-25
				C180.7,260.2,178,255.9,173.3,252.3"/>
		</g>
		<path class="st2" d="M187.1,123.8L157.5,93V69.4h-16v6.8l-16.9-17.6L61,123.8l15.1-0.6l-0.2,42c0,0,14.2,22.5,48.8,22.4
			c35.4-0.1,46.8-24.9,46.8-24.9l-0.4-38.9C171.1,123.8,187.1,123.8,187.1,123.8z M122.2,159.1h-18.5V140h18.5V159.1z M122.2,136.7
			h-18.5v-19.1h18.5V136.7z M144.4,159.1H126V140h18.5v19.1H144.4z M144.4,136.7H126v-19.1h18.5v19.1H144.4z"/>
	</g>
	<g>
		<path class="st2" d="M252.7,231.7v-141h29.5v32.8c1.5-4.5,3.9-7.8,7.1-10s6.9-3.2,11.2-3.2c8.3,0,14.4,2.6,18.2,7.8
			c3.8,5.2,5.7,12.3,5.7,21.1v92.5h-29V141c0-2.6-0.5-4.8-1.6-6.4c-1.1-1.7-2.8-2.5-5.2-2.5c-2,0-3.5,0.9-4.7,2.6
			c-1.1,1.7-1.7,3.7-1.7,6.1v90.9L252.7,231.7L252.7,231.7z"/>
		<path class="st2" d="M377,233c-23.9,0-35.9-12.4-35.9-37.2v-48.2c0-11.3,3.2-20.4,9.5-27.1c6.4-6.8,15.1-10.1,26.4-10.1
			s20.1,3.4,26.4,10.1c6.4,6.8,9.5,15.8,9.5,27.1v48.2C413,220.6,401,233,377,233z M377,210.9c2.4,0,4.1-0.9,5.2-2.6
			c1-1.7,1.6-3.9,1.6-6.6V143c0-7-2.2-10.5-6.7-10.5s-6.7,3.5-6.7,10.5v58.7c0,2.7,0.5,4.9,1.6,6.6C372.9,210,374.6,210.9,377,210.9
			z"/>
		<path class="st2" d="M430.1,231.7V111.6h28v13.9c1.3-4.9,3.5-8.7,6.6-11.3c3.1-2.6,7.6-3.9,13.6-3.9c4.8,0,8.9,1.1,12.3,3.3
			c3.4,2.2,5.8,5.1,7.2,8.8c2.2-4,4.8-7,7.7-9c3-2.1,7.2-3.1,12.7-3.1c6.7,0,11.8,1.4,15.4,4.3c3.6,2.9,6.1,6.8,7.5,11.9
			c1.4,5,2.1,10.9,2.1,17.5v87.8h-28.6v-88.3c0-7.7-2-11.6-5.9-11.6c-2.1,0-3.7,0.7-4.8,2.1c-1.1,1.4-1.9,3.2-2.3,5.2
			c-0.4,2.1-0.6,4.2-0.6,6.2v86.3h-28.6v-88.3c0-2.5-0.3-5-0.9-7.5s-2.2-3.8-4.7-3.8c-2.1,0-3.8,0.8-5,2.3s-2,3.5-2.4,5.7
			c-0.4,2.3-0.6,4.5-0.6,6.7v84.8h-28.7V231.7z"/>
		<path class="st2" d="M594.7,233c-8.5,0-15.4-1.6-20.4-4.8c-5.1-3.2-8.7-7.8-10.9-13.9c-2.2-6-3.3-13.3-3.3-21.8v-48.3
			c0-11.2,3.2-19.6,9.6-25.3c6.4-5.7,15.2-8.6,26.4-8.6c23.1,0,34.6,11.3,34.6,34v8.7c0,10.6-0.1,17.7-0.3,21.3h-41.6v23.2
			c0,2.1,0.1,4.2,0.4,6.3c0.3,2.1,0.9,3.8,1.8,5.1c0.9,1.3,2.4,2,4.5,2c3,0,4.9-1.3,5.6-3.9c0.7-2.6,1.1-6,1.1-10.1v-11.5h28.5v6.8
			c0,9-1.1,16.5-3.3,22.5c-2.2,6.1-6,10.6-11.2,13.7C610.9,231.5,603.8,233,594.7,233z M588.6,160.1h13.6v-16.2
			c0-4.3-0.5-7.4-1.6-9.3c-1.1-1.9-2.7-2.8-4.8-2.8c-2.3,0-4.1,0.9-5.3,2.7c-1.3,1.8-1.9,5-1.9,9.4V160.1z"/>
		<path class="st2" d="M647.6,104.2V80.4h28.7v23.9h-28.7V104.2z M647.6,231.7V111.6h28.7v120.1H647.6z"/>
		<path class="st2" d="M694.2,231.7V111.6h29.2V125c1.4-4.6,3.8-8.3,7.4-10.9c3.5-2.6,8-3.9,13.3-3.9v23.9c-2.4,0-5.2,0.3-8.4,0.8
			c-3.3,0.5-6.1,1.2-8.6,2.1c-2.5,0.9-3.7,1.9-3.7,2.9v91.9L694.2,231.7L694.2,231.7z"/>
		<path class="st2" d="M791.2,233c-8.5,0-15.4-1.6-20.4-4.8c-5.1-3.2-8.7-7.8-10.9-13.9c-2.2-6-3.3-13.3-3.3-21.8v-48.3
			c0-11.2,3.2-19.6,9.6-25.3c6.4-5.7,15.2-8.6,26.4-8.6c23.1,0,34.6,11.3,34.6,34v8.7c0,10.6-0.1,17.7-0.3,21.3h-41.6v23.2
			c0,2.1,0.1,4.2,0.4,6.3c0.3,2.1,0.9,3.8,1.8,5.1c0.9,1.3,2.4,2,4.5,2c3,0,4.9-1.3,5.6-3.9c0.7-2.6,1.1-6,1.1-10.1v-11.5h28.5v6.8
			c0,9-1.1,16.5-3.3,22.5c-2.2,6.1-6,10.6-11.2,13.7C807.5,231.5,800.3,233,791.2,233z M785.1,160.1h13.6v-16.2
			c0-4.3-0.5-7.4-1.6-9.3c-1.1-1.9-2.7-2.8-4.8-2.8c-2.3,0-4.1,0.9-5.3,2.7c-1.3,1.8-1.9,5-1.9,9.4V160.1z"/>
		<path class="st2" d="M844.2,231.7v-141h29.2v141H844.2z"/>
		<path class="st2" d="M913.4,233c-6.7,0-11.8-1.5-15.3-4.6s-5.9-7.3-7.2-12.7s-1.9-11.5-1.9-18.3c0-7.3,0.7-13.3,2.2-18
			c1.4-4.7,3.9-8.5,7.4-11.5s8.3-5.5,14.5-7.6l17.8-6.1v-12.3c0-6.5-2.1-9.7-6.3-9.7c-3.8,0-5.8,2.6-5.8,7.8v7.2h-27.9
			c-0.1-0.4-0.1-1-0.1-1.6c0-0.7,0-1.4,0-2.3c0-12,2.8-20.4,8.5-25.4c5.6-5,14.6-7.5,26.8-7.5c6.4,0,12.1,1.1,17.2,3.4
			c5.1,2.3,9.1,5.6,12.1,10.1c3,4.4,4.4,9.9,4.4,16.4v91.5h-28.5v-14.3c-1.4,5-3.7,8.9-6.9,11.5C921.1,231.7,917.5,233,913.4,233z
			 M924.6,210.7c2.3,0,4-1,4.8-3c0.9-2,1.3-4.1,1.3-6.4v-33.5c-4,1.6-7,3.6-9.2,6s-3.3,6-3.3,10.7V200
			C918.2,207.2,920.4,210.7,924.6,210.7z"/>
		<path class="st2" d="M977.3,231.7V111.6h28.7v15.3c1.1-4.6,3.1-8.5,6-11.7s7-4.8,12.1-4.8c8.3,0,14.4,2.6,18.1,7.7
			c3.8,5.1,5.6,12.1,5.6,21.1v92.7h-28.3V142c0-2.3-0.5-4.5-1.4-6.5c-1-2-2.6-3-5-3c-2.2,0-3.8,0.8-4.8,2.3s-1.7,3.4-2,5.7
			s-0.4,4.5-0.4,6.8v84.5h-28.6V231.7z"/>
		<path class="st2" d="M1089.3,233c-5.6,0-10-1-13.2-3c-3.3-2-5.7-4.8-7.3-8.4c-1.6-3.6-2.7-7.8-3.2-12.6s-0.8-10-0.8-15.5v-52.2
			c0-9.2,1.6-16.7,4.9-22.4c3.3-5.7,8.9-8.6,16.7-8.6c5.8,0,10.3,1.2,13.4,3.7s5.5,5.9,7.2,10.4V90.8h29.2v141H1107V219
			c-1.6,4.3-3.7,7.7-6.4,10.3C1098.1,231.8,1094.3,233,1089.3,233z M1100.3,210.6c2.7,0,4.6-1.1,5.5-3.3s1.4-6.1,1.4-11.8V145
			c0-2.8-0.4-5.6-1.2-8.4c-0.8-2.7-2.7-4.1-5.5-4.1c-3.1,0-5,1.3-5.8,3.9c-0.8,2.6-1.2,5.5-1.2,8.6v50.5
			C1093.4,205.6,1095.7,210.6,1100.3,210.6z"/>
	</g>
</g>
</svg>
