<svg xmlns="http://www.w3.org/2000/svg" viewBox="0 0 479.51 102.12"><defs><style>.a{fill:#fff;}</style></defs><path class="a" d="M122.22,83.36v-16H102.83v16H98.29V47.77h4.54V63.48h19.39V47.77h4.54V83.36Z"/><path class="a" d="M151.55,84c-9.69,0-18.77-7.24-18.77-18.53s9.08-18.29,18.77-18.29,18.66,7.12,18.66,18.29A18.4,18.4,0,0,1,151.92,84C151.8,84,151.68,84,151.55,84Zm0-32.77a14,14,0,0,0-14.11,13.87c0,.16,0,.33,0,.49A14,14,0,0,0,150.93,80h.62a14.24,14.24,0,0,0,14.12-14.36v-.13A14.11,14.11,0,0,0,151.8,51.21Z"/><path class="a" d="M210.71,83.36l-1.47-17.31c-.13-2.57-.37-5.89-.49-8.59h-.13c-1.22,2.7-2.94,6.26-4.29,8.84l-8.47,17.18H194L185.43,66.3c-1.35-2.58-2.83-5.89-4.18-8.84h-.12c-.12,2.95-.37,6.26-.49,8.59l-1.47,17.31h-4l2.94-35.59h2.83l9.57,19.14c1.47,2.83,3.31,6.51,4.66,9.45h.13c1.22-2.94,2.82-6.38,4.41-9.57l9.45-19h2.95l3.07,35.59Z"/><path class="a" d="M221.51,83.36V47.77h18.78v3.92H226.05V63.48H238V67.4H226.05V79.31h16.2v4Z"/><path class="a" d="M258.43,83.48V47.89h8.72V83.48Z"/><path class="a" d="M293.53,83.48l-9.57-14h-2.21v14h-8.34V47.89h13c6,0,11.41,4,11.41,10.8a9.83,9.83,0,0,1-5.4,8.84l11.29,16Zm-8.46-28.59h-3.32v8h3.32c2.2,0,4.54-1.22,4.54-4S287.27,54.89,285.07,54.89Z"/><path class="a" d="M305,83.48V47.89h20.37V55h-11.9v7h9.81v7.24h-9.81v7.11H327v7.12Z"/><path class="a" d="M330.23,83.48V47.89h8.59V76.36H352.2v7.12Z"/><path class="a" d="M379.08,83.48l-2.95-8.1H364.84l-2.94,8.1h-8.11l14-35.83h5.89l14,35.83Zm-7.49-21.35c-.37-1-.74-2.21-1.1-3.32h0c-.37,1.11-.74,2.34-1.11,3.32l-2.33,6.5h7Z"/><path class="a" d="M420.07,83.85l-14-15.34c-2.21-2.45-4.79-5.4-6.63-7.73h-.12c.12,2.58.12,5.15.12,7.48V83.48h-8.34V47.89h7l12.27,13.26c1.72,2,4.3,4.78,5.89,6.87h.13c-.13-2.09-.25-4.3-.25-6.63V47.89h8.35v36Z"/><path class="a" d="M442.28,83.48h-12V47.89h12c10.19,0,19,6.63,19,17.8S452.47,83.48,442.28,83.48ZM441.42,55H438.6V76.36h2.82c6.14,0,11.17-3.55,11.17-10.67S447.56,55,441.42,55Z"/><rect class="a" x="39.55" y="81.31" width="30.82" height="5.76" rx="2.88"/><path class="a" d="M42.73,72.71a3.72,3.72,0,0,0-3.63-3.88,3.88,3.88,0,0,0,0,7.75A3.71,3.71,0,0,0,42.73,72.71Z"/><path class="a" d="M66.9,53.44c-1-2.18-1.86-2.64-4-2.64H47c-2.12,0-3,.48-4,2.64L38,64.59H72Z"/><path class="a" d="M70.8,68.83a3.88,3.88,0,0,0,0,7.75,3.88,3.88,0,0,0,0-7.75Z"/><path class="a" d="M92,50.8,78.33,37.25V22H67.15v4.4L55.35,15,18.2,50.8h5.05c0,.12,0,.24,0,.37V83.11a3.91,3.91,0,0,0,3.81,4.06h4.6V69.5a9.39,9.39,0,0,1,.88-4.25l7.26-16.16a6.12,6.12,0,0,1,5.05-3.4H65.39a6,6,0,0,1,5,3.4l7.28,16.16a9.39,9.39,0,0,1,.88,4.25V87.16h4.6A3.91,3.91,0,0,0,87,83.1V51.17l0-.37Z"/></svg>