<svg id="Layer_1" data-name="Layer 1" xmlns="http://www.w3.org/2000/svg" viewBox="0 0 209.8 67.8"><title>d</title><path d="M36.6,14.2a16,16,0,0,0-17.8,0c-14.8,10-.4,29.2,9,37.6C37,43.2,51.4,24.2,36.6,14.2Zm-8.9,24c-6.9,0-12.6-5.4-12.6-12s5.7-12,12.6-12,12.6,5.4,12.6,12S34.6,38.2,27.7,38.2Z" fill="#ff0013" fill-rule="evenodd"/><path d="M36,48.1c2.2.9,3.7,2.1,3.7,3.5s-5.4,4.8-12,4.8-12-2.2-12-4.8,1.5-2.6,3.8-3.5a2.7,2.7,0,0,0-1.3,2.1c0,2.3,4.3,4.2,9.5,4.2s9.5-1.9,9.5-4.2A2.9,2.9,0,0,0,36,48.1" fill="#ff0013" fill-rule="evenodd"/><path d="M38.3,26.6l-5-5.2V17.5H30.6v1.1l-2.8-2.9L17.1,26.6h2.6v7s2.4,3.8,8.2,3.8,7.8-4.2,7.8-4.2V26.6ZM27.4,32.5H24.3V29.3h3.1Zm0-3.7H24.3V25.5h3.1Zm3.7,3.7H28V29.3h3.1Zm0-3.7H28V25.5h3.1Z" fill="#ff0013"/><path d="M49.3,44.7V21.1h4.9v5.4a3.4,3.4,0,0,1,1.2-1.6,3.1,3.1,0,0,1,1.9-.6,3.6,3.6,0,0,1,3,1.3,5.7,5.7,0,0,1,1,3.6V44.7H56.4V29.5a1.8,1.8,0,0,0-.3-1.1c-.1-.3-.4-.4-.8-.4a.8.8,0,0,0-.8.4,1.7,1.7,0,0,0-.3,1V44.7Z" fill="#ff0013"/><path d="M70.1,44.9c-4,0-6-2.1-6-6.2V30.6A6.5,6.5,0,0,1,65.7,26a5.9,5.9,0,0,1,4.4-1.7A5.7,5.7,0,0,1,74.5,26a6.5,6.5,0,0,1,1.6,4.6v8.1C76.1,42.8,74.1,44.9,70.1,44.9Zm0-3.7a1.3,1.3,0,0,0,.9-.4,3.7,3.7,0,0,0,.2-1.2V29.8c0-1.2-.3-1.8-1.1-1.8s-1.1.6-1.1,1.8v9.8a3.7,3.7,0,0,0,.2,1.2A1.3,1.3,0,0,0,70.1,41.2Z" fill="#ff0013"/><path d="M79,44.7V24.5h4.7v2.4A3.6,3.6,0,0,1,84.8,25a3.9,3.9,0,0,1,4.3-.1,2.6,2.6,0,0,1,1.2,1.5,5.3,5.3,0,0,1,1.3-1.6,4.2,4.2,0,0,1,2.2-.5,4.7,4.7,0,0,1,2.6.7,3.7,3.7,0,0,1,1.2,2,9.5,9.5,0,0,1,.4,3V44.7H93.2V29.9c0-1.3-.4-2-1-2a1,1,0,0,0-.8.4,1.9,1.9,0,0,0-.4.9,3.4,3.4,0,0,0-.1,1V44.7H86.1V29.9a5.9,5.9,0,0,0-.2-1.3.7.7,0,0,0-.7-.6,1,1,0,0,0-.9.4,2.5,2.5,0,0,0-.4.9,4.9,4.9,0,0,0-.1,1.2V44.7Z" fill="#ff0013"/><path d="M106.6,44.9a6.6,6.6,0,0,1-3.4-.8,4.3,4.3,0,0,1-1.9-2.3,13.2,13.2,0,0,1-.5-3.7V30a5.2,5.2,0,0,1,1.6-4.2,6.3,6.3,0,0,1,4.4-1.5c3.9,0,5.8,1.9,5.8,5.7v5.1h-7v3.8a3.7,3.7,0,0,0,.1,1.1,1.6,1.6,0,0,0,.3.9.8.8,0,0,0,.7.3,1,1,0,0,0,1-.7,7.2,7.2,0,0,0,.2-1.7V36.9h4.7V38a13,13,0,0,1-.5,3.8,4.3,4.3,0,0,1-1.9,2.3A7.4,7.4,0,0,1,106.6,44.9Zm-1-12.2h2.3V30a3,3,0,0,0-.3-1.6,1,1,0,0,0-.8-.5,1.1,1.1,0,0,0-.9.5,3,3,0,0,0-.3,1.6Z" fill="#ff0013"/><path d="M115.5,23.3v-4h4.8v4Zm0,21.4V24.5h4.8V44.7Z" fill="#ff0013"/><path d="M123.3,44.7V24.5h4.8v2.3a3.5,3.5,0,0,1,1.3-1.8,3.2,3.2,0,0,1,2.2-.7v4h-1.4l-1.4.4c-.4.1-.7.3-.7.5V44.7Z" fill="#ff0013"/><path d="M139.5,44.9a6.8,6.8,0,0,1-3.4-.8,4.7,4.7,0,0,1-1.8-2.3,10.2,10.2,0,0,1-.6-3.7V30a5.6,5.6,0,0,1,1.6-4.2,6.4,6.4,0,0,1,4.5-1.5c3.8,0,5.8,1.9,5.8,5.7v1.5a31.4,31.4,0,0,1-.1,3.6h-7v3.8c0,.4.1.8.1,1.1l.3.9a1,1,0,0,0,.8.3.8.8,0,0,0,.9-.7,7.2,7.2,0,0,0,.2-1.7V36.9h4.8V38a10.1,10.1,0,0,1-.6,3.8,4.3,4.3,0,0,1-1.9,2.3A6.9,6.9,0,0,1,139.5,44.9Zm-1-12.2h2.3V30a3,3,0,0,0-.3-1.6.9.9,0,0,0-.8-.5,1.1,1.1,0,0,0-.9.5,3,3,0,0,0-.3,1.6Z" fill="#ff0013"/><path d="M148.4,44.7V21.1h4.9V44.7Z" fill="#ff0013"/><path d="M160,44.9a4,4,0,0,1-2.6-.8,5.3,5.3,0,0,1-1.2-2.1,14.2,14.2,0,0,1-.3-3.1,8.7,8.7,0,0,1,.4-3,3.5,3.5,0,0,1,1.2-1.9,6.8,6.8,0,0,1,2.4-1.3l3-1V29.6c0-1.1-.3-1.6-1-1.6s-1,.4-1,1.3v1.2h-4.7v-.7c0-2,.5-3.4,1.4-4.2a8,8,0,0,1,7.4-.7,4.2,4.2,0,0,1,2,1.7,4.6,4.6,0,0,1,.8,2.7V44.7H163V42.3a3.1,3.1,0,0,1-1.2,1.9A2.4,2.4,0,0,1,160,44.9Zm1.9-3.7a.8.8,0,0,0,.8-.5,4.3,4.3,0,0,0,.2-1.1V34a3.3,3.3,0,0,0-1.5,1,2.4,2.4,0,0,0-.6,1.8v2.6C160.8,40.6,161.2,41.2,161.9,41.2Z" fill="#ff0013"/><path d="M170.7,44.7V24.5h4.8v2.6a4.7,4.7,0,0,1,1-2,2.9,2.9,0,0,1,2.1-.8,3.6,3.6,0,0,1,3,1.3,6.3,6.3,0,0,1,1,3.5V44.7h-4.8V29.6a3.6,3.6,0,0,0-.2-1,1,1,0,0,0-.9-.6,1.2,1.2,0,0,0-.8.4,2.9,2.9,0,0,0-.3,1c0,.4-.1.7-.1,1.1V44.7Z" fill="#ff0013"/><path d="M189.5,44.9a4.5,4.5,0,0,1-2.2-.5,2.7,2.7,0,0,1-1.2-1.4,6.5,6.5,0,0,1-.6-2.1,21.7,21.7,0,0,1-.1-2.6V29.5a7.8,7.8,0,0,1,.8-3.7,3,3,0,0,1,2.8-1.5,3.2,3.2,0,0,1,2.3.7,3.7,3.7,0,0,1,1.2,1.7V21.1h4.9V44.7h-4.9V42.5a4.6,4.6,0,0,1-1.1,1.8A2.7,2.7,0,0,1,189.5,44.9Zm1.8-3.8c.5,0,.8-.1,1-.5a8.1,8.1,0,0,0,.2-2V30.1a7.8,7.8,0,0,0-.2-1.4,1.1,1.1,0,0,0-.9-.7.9.9,0,0,0-1,.7,3.2,3.2,0,0,0-.2,1.4v8.5C190.2,40.3,190.6,41.1,191.3,41.1Z" fill="#ff0013"/></svg>