<svg xmlns="http://www.w3.org/2000/svg" viewBox="0 0 197.72 184.88"><defs><style>.a{fill:#ea0011;}.b{fill:#fff;}</style></defs><circle class="a" cx="98.86" cy="92.44" r="87.03"/><rect class="b" x="71.46" y="140.41" width="54.22" height="10.13" rx="4.1"/><path class="b" d="M77.06,125.27a6.53,6.53,0,0,0-6.39-6.81,6.83,6.83,0,0,0,0,13.63A6.53,6.53,0,0,0,77.06,125.27Z"/><path class="b" d="M119.6,91.37c-1.71-3.83-3.29-4.64-7-4.64H84.54c-3.74,0-5.29.84-7,4.64L68.81,111h59.67Z"/><path class="b" d="M126.44,118.46a6.83,6.83,0,0,0,0,13.63,6.83,6.83,0,0,0,0-13.63Z"/><path class="b" d="M163.83,86.73,139.7,62.88V36H120v7.74L99.27,23.64,33.89,86.73h8.89c0,.21,0,.42,0,.65v56.2a6.87,6.87,0,0,0,6.69,7.15h8.1V119.62a16.51,16.51,0,0,1,1.55-7.47L71.89,83.71c1.55-3.31,5.45-6,8.88-6h36.15a10.58,10.58,0,0,1,8.89,6l12.8,28.44a16.52,16.52,0,0,1,1.56,7.47V150.7h8.09a6.88,6.88,0,0,0,6.7-7.14V87.38c0-.23,0-.43-.05-.65Z"/></svg>